<svg xmlns="http://www.w3.org/2000/svg" xmlns:xlink="http://www.w3.org/1999/xlink" fill="none" version="1.1" width="21" height="20.999996185302734" viewBox="0 0 21 20.999996185302734"><defs><clipPath id="master_svg0_9_0235"><rect x="0" y="0" width="21" height="20.999996185302734" rx="0"/></clipPath></defs><g clip-path="url(#master_svg0_9_0235)"><g><path d="M9.9628,1.059317C10.27877,0.8135611,10.7212,0.8135611,11.03716,1.059317C11.03716,1.059317,18.9122,7.18432,18.9122,7.18432C19.1253,7.35009,19.25,7.60498,19.25,7.875C19.25,7.875,19.25,17.5,19.25,17.5C19.25,18.1962,18.9734,18.8639,18.4811,19.3561C17.9889,19.8484,17.321199999999997,20.125,16.625,20.125C16.625,20.125,4.375,20.125,4.375,20.125C3.67881,20.125,3.01113,19.8484,2.518845,19.3561C2.026561,18.8639,1.75,18.1962,1.75,17.5C1.75,17.5,1.75,7.875,1.75,7.875C1.75,7.60498,1.874664,7.35009,2.087802,7.18432C2.087802,7.18432,9.9628,1.059317,9.9628,1.059317C9.9628,1.059317,9.9628,1.059317,9.9628,1.059317ZM8.75,18.375C8.75,18.375,12.25,18.375,12.25,18.375C12.25,18.375,12.25,11.375,12.25,11.375C12.25,11.375,8.75,11.375,8.75,11.375C8.75,11.375,8.75,18.375,8.75,18.375C8.75,18.375,8.75,18.375,8.75,18.375ZM14,18.375C14,18.375,14,10.5,14,10.5C14,10.01674,13.6083,9.625,13.125,9.625C13.125,9.625,7.875,9.625,7.875,9.625C7.39176,9.625,7,10.01674,7,10.5C7,10.5,7,18.375,7,18.375C7,18.375,4.375,18.375,4.375,18.375C4.14293,18.375,3.92038,18.2828,3.75628,18.1187C3.59219,17.9547,3.5,17.732,3.5,17.5C3.5,17.5,3.5,8.30295,3.5,8.30295C3.5,8.30295,10.5,2.8585000000000003,10.5,2.8585000000000003C10.5,2.8585000000000003,17.5,8.30295,17.5,8.30295C17.5,8.30295,17.5,17.5,17.5,17.5C17.5,17.732,17.4078,17.9547,17.2437,18.1187C17.0796,18.2828,16.857,18.375,16.625,18.375C16.625,18.375,14,18.375,14,18.375C14,18.375,14,18.375,14,18.375Z" fill-rule="evenodd" fill="#373737" fill-opacity="1"/></g></g></svg>