<svg xmlns="http://www.w3.org/2000/svg" xmlns:xlink="http://www.w3.org/1999/xlink" fill="none" version="1.1" width="137" height="137" viewBox="0 0 137 137"><defs><clipPath id="master_svg0_1_927"><rect x="0" y="0" width="137" height="137" rx="0"/></clipPath></defs><g clip-path="url(#master_svg0_1_927)"><g transform="matrix(0.10000000149011612,0,0,-0.10000000149011612,4.669903556721238,134.21718768181745)"><g><path d="M188.76978173828124,1239.425625C188.76978173828124,1211.595625,173.78478173828125,1160.215625,152.37878173828125,1121.687625C105.28478173828125,1027.499625,107.42578173828124,892.640625,160.94178173828124,804.874625C201.61378173828126,738.515625,203.75378173828125,721.390625,180.20678173828125,607.937625C163.08178173828125,522.312625,137.39478173828124,468.796625,96.72268173828125,430.265625C64.61338173828125,402.437625,38.92588173828125,357.484625,38.92588173828125,333.937625C38.92588173828125,310.390625,30.36338173828125,271.859625,17.51958173828125,250.452625C-10.30851826171875,199.078125,11.09771173828125,143.421825,60.33208173828125,143.421825C90.30078173828124,143.421825,96.72268173828125,160.546825,94.58208173828125,224.765625C92.44148173828125,295.40662499999996,101.00398173828125,308.24962500000004,167.36378173828126,340.359625C240.14478173828124,376.74962500000004,242.28478173828125,376.74962500000004,257.26978173828127,333.937625C293.65978173828125,239.74962499999998,362.15978173828125,164.828125,415.6757817382813,164.828125C443.50378173828125,164.828125,467.0507817382813,175.531225,467.0507817382813,186.234325C467.0507817382813,199.078125,454.2067817382812,207.640625,437.0817817382812,207.640625C419.9567817382812,207.640625,389.98878173828126,229.046625,372.86378173828126,254.734625C340.75378173828125,299.687625,342.89478173828127,306.109625,417.81678173828124,374.609625C486.31678173828124,434.546625,514.1447817382813,447.390625,621.1757817382812,451.671625L745.3317817382813,458.093625L745.3317817382813,348.921625C745.3317817382813,199.078125,764.5977817382812,143.421825,811.6917817382813,143.421825C854.5037817382813,143.421825,867.3477817382812,175.531225,833.0977817382812,194.796825C811.6917817382813,209.781225,843.8007817382812,400.296625,871.6287817382813,428.124625C910.1597817382813,466.656625,952.9727817382812,423.843625,1002.2067817382813,299.687625C1062.1487817382813,147.703125,1081.4087817382813,122.015625,1132.7887817382812,122.015625C1184.1587817382813,122.015625,1184.1587817382813,132.718725,1134.9287817382813,181.953125C1068.5687817382814,248.312625,1060.0087817382812,402.437625,1115.6587817382813,567.265625C1152.0487817382811,678.577625,1175.5987817382813,717.109625,1222.6887817382812,738.515625C1314.7387817382812,783.468625,1286.9087817382813,879.796625,1169.1787817382813,920.468625C1147.7687817382812,929.031625,1130.6487817382813,950.437625,1130.6487817382813,969.702625C1130.6487817382813,997.531625,1124.2187817382812,999.671625,1100.6787817382813,980.406625C1083.5487817382811,967.562625,1057.8587817382813,958.999625,1042.8787817382813,961.140625C1027.8987817382813,965.421625,1010.7687817382813,937.593625,1000.0667817382813,892.640625C978.6597817382813,789.890625,937.9877817382812,768.484625,815.9727817382812,787.749625C758.1757817382812,796.312625,616.8947817382813,804.874625,499.15978173828125,807.015625C270.11378173828126,807.015625,250.84778173828124,813.437625,212.31678173828124,886.218625C180.20678173828125,950.437625,182.34778173828124,1014.656625,225.15978173828125,1123.825625C257.26978173828127,1209.455625,257.26978173828127,1218.015625,225.15978173828125,1252.265625C190.90978173828125,1284.375625,188.76978173828124,1284.375625,188.76978173828124,1239.425625Z" fill="#000000" fill-opacity="1"/></g></g></g></svg>