<svg xmlns="http://www.w3.org/2000/svg" xmlns:xlink="http://www.w3.org/1999/xlink" fill="none" version="1.1" width="24" height="24" viewBox="0 0 24 24"><defs><clipPath id="master_svg0_9_0750"><rect x="0" y="0" width="24" height="24" rx="0"/></clipPath></defs><g clip-path="url(#master_svg0_9_0750)"><g><path d="M3.10658,5.55395C3.10658,5.55395,12,11.77934,12,11.77934C12,11.77934,20.8934,5.55395,20.8934,5.55395C20.728,5.22692,20.388,5,20,5C20,5,4,5,4,5C3.61204,5,3.27196,5.22692,3.10658,5.55395C3.10658,5.55395,3.10658,5.55395,3.10658,5.55395ZM21,7.92066C21,7.92066,12.5735,13.8192,12.5735,13.8192C12.2291,14.0603,11.7709,14.0603,11.4265,13.8192C11.4265,13.8192,3,7.92066,3,7.92066C3,7.92066,3,18,3,18C3,18.5477,3.45228,19,4,19C4,19,20,19,20,19C20.5477,19,21,18.5477,21,18C21,18,21,7.92066,21,7.92066C21,7.92066,21,7.92066,21,7.92066ZM1,6C1,4.34772,2.34772,3,4,3C4,3,20,3,20,3C21.6523,3,23,4.34772,23,6C23,6,23,18,23,18C23,19.6523,21.6523,21,20,21C20,21,4,21,4,21C2.34772,21,1,19.6523,1,18C1,18,1,6,1,6C1,6,1,6,1,6Z" fill-rule="evenodd" fill="#000000" fill-opacity="1"/></g></g></svg>