<svg xmlns="http://www.w3.org/2000/svg" xmlns:xlink="http://www.w3.org/1999/xlink" fill="none" version="1.1" width="20" height="19.999996185302734" viewBox="0 0 20 19.999996185302734"><defs><clipPath id="master_svg0_9_0228"><rect x="0" y="0" width="20" height="19.999996185302734" rx="0"/></clipPath></defs><g clip-path="url(#master_svg0_9_0228)"><g><path d="M8.751776494140625,1.1689671196289062C9.131386494140624,0.9502141196289062,9.561826494140625,0.8350601196289062,9.999986494140625,0.8350601196289062C10.438156494140625,0.8350601196289062,10.868656494140625,0.9502231196289063,11.248236494140626,1.1689931196289063C11.248826494140625,1.1693271196289063,11.249406494140626,1.1696621196289063,11.249986494140625,1.1699971196289063C11.249986494140625,1.1699971196289063,17.083356494140624,4.503320119628906,17.083356494140624,4.503320119628906C17.391656494140626,4.681330119628907,17.657556494140625,4.922640119628906,17.864056494140623,5.210320119628906C17.914356494140623,5.260630119628906,17.958956494140626,5.318250119628906,17.996356494140624,5.3827501196289065C18.028456494140624,5.438300119628907,18.053456494140626,5.496030119628906,18.071656494140626,5.5548601196289065C18.243056494140625,5.899420119628906,18.332956494140625,6.279580119628906,18.333356494140624,6.6658301196289065C18.333356494140624,6.6658301196289065,18.333356494140624,13.334260119628906,18.333356494140624,13.334260119628906C18.332956494140625,13.772660119628906,18.217156494140625,14.203260119628906,17.997756494140624,14.582760119628906C17.778356494140624,14.962260119628906,17.462956494140627,15.277460119628905,17.083356494140624,15.496760119628906C17.083356494140624,15.496760119628906,17.080056494140624,15.498560119628907,17.080056494140624,15.498560119628907C17.080056494140624,15.498560119628907,11.249986494140625,18.830060119628907,11.249986494140625,18.830060119628907C11.249486494140625,18.830260119628907,11.248986494140626,18.830660119628906,11.248486494140625,18.830860119628905C10.984156494140626,18.983360119628905,10.695156494140624,19.085360119628906,10.396076494140624,19.133360119628907C10.278236494140625,19.197160119628908,10.143326494140625,19.233260119628905,9.999986494140625,19.233260119628905C9.856636494140625,19.233260119628905,9.721736494140625,19.197160119628908,9.603936494140626,19.133360119628907C9.304856494140626,19.085360119628906,9.015866494140624,18.983360119628905,8.751536494140625,18.830860119628905C8.751016494140625,18.830660119628906,8.750506494140625,18.830260119628907,8.749986494140625,18.830060119628907C8.749986494140625,18.830060119628907,2.919876494140625,15.498560119628907,2.919876494140625,15.498560119628907C2.919876494140625,15.498560119628907,2.916656494140625,15.496760119628906,2.916656494140625,15.496760119628906C2.5369814941406252,15.277460119628905,2.2216314941406248,14.962260119628906,2.002233494140625,14.582760119628906C1.7828344941406251,14.203260119628906,1.667106162140625,13.772660119628906,1.666656494140625,13.334260119628906C1.666656494140625,13.334260119628906,1.666656494140625,6.6658301196289065,1.666656494140625,6.6658301196289065C1.667052666140625,6.279580119628906,1.756926494140625,5.899420119628906,1.928339494140625,5.5548601196289065C1.946502494140625,5.496030119628906,1.9715114941406249,5.438310119628906,2.003649494140625,5.3827501196289065C2.040960494140625,5.318250119628906,2.085593494140625,5.260630119628906,2.135889494140625,5.210320119628906C2.342436494140625,4.922640119628906,2.6083394941406253,4.681330119628907,2.916656494140625,4.503330119628906C2.916656494140625,4.503330119628906,2.919876494140625,4.501480119628907,2.919876494140625,4.501480119628907C2.919876494140625,4.501480119628907,5.6271364941406254,2.954470119628906,5.6271364941406254,2.954470119628906C5.750126494140625,2.8158901196289063,5.913476494140625,2.725430119628906,6.088586494140625,2.6907901196289066C6.088586494140625,2.6907901196289066,8.751776494140625,1.1689671196289062,8.751776494140625,1.1689671196289062C8.751776494140625,1.1689671196289062,8.751776494140625,1.1689671196289062,8.751776494140625,1.1689671196289062ZM6.291646494140625,4.494340119628906C6.291646494140625,4.494340119628906,4.199146494140625,5.690050119628906,4.199146494140625,5.690050119628906C4.199146494140625,5.690050119628906,9.999986494140625,9.045630119628907,9.999986494140625,9.045630119628907C9.999986494140625,9.045630119628907,12.088756494140625,7.837350119628907,12.088756494140625,7.837350119628907C12.088756494140625,7.837350119628907,6.291646494140625,4.494340119628906,6.291646494140625,4.494340119628906C6.291646494140625,4.494340119628906,6.291646494140625,4.494340119628906,6.291646494140625,4.494340119628906ZM13.754356494140625,6.873890119628906C13.754356494140625,6.873890119628906,7.967406494140625,3.5367601196289065,7.967406494140625,3.5367601196289065C7.967406494140625,3.5367601196289065,9.580106494140626,2.615220119628906,9.580106494140626,2.615220119628906C9.580106494140626,2.615220119628906,9.583326494140625,2.6133701196289065,9.583326494140625,2.6133701196289065C9.710006494140625,2.540240119628906,9.853706494140624,2.501730119628906,9.999986494140625,2.501730119628906C10.146236494140625,2.501730119628906,10.289986494140624,2.540240119628906,10.416656494140625,2.6133701196289065C10.416656494140625,2.6133701196289065,15.800856494140625,5.690050119628906,15.800856494140625,5.690050119628906C15.800856494140625,5.690050119628906,13.754356494140625,6.873890119628906,13.754356494140625,6.873890119628906C13.754356494140625,6.873890119628906,13.754356494140625,6.873890119628906,13.754356494140625,6.873890119628906ZM16.666656494140625,7.114630119628906C16.666656494140625,7.114630119628906,10.833326494140625,10.488980119628906,10.833326494140625,10.488980119628906C10.833326494140625,10.488980119628906,10.833326494140625,17.148560119628907,10.833326494140625,17.148560119628907C10.833326494140625,17.148560119628907,16.249956494140626,14.053360119628906,16.249956494140626,14.053360119628906C16.250356494140625,14.053060119628906,16.250956494140624,14.052860119628907,16.251356494140623,14.052560119628906C16.377256494140624,13.979560119628907,16.481856494140626,13.874760119628906,16.554856494140623,13.748660119628907C16.627956494140626,13.622160119628907,16.666456494140625,13.478660119628906,16.666656494140625,13.332460119628907C16.666656494140625,13.332460119628907,16.666656494140625,7.114630119628906,16.666656494140625,7.114630119628906C16.666656494140625,7.114630119628906,16.666656494140625,7.114630119628906,16.666656494140625,7.114630119628906ZM9.166656494140625,17.148560119628907C9.166656494140625,17.148560119628907,9.166656494140625,10.488980119628906,9.166656494140625,10.488980119628906C9.166656494140625,10.488980119628906,3.333326494140625,7.114630119628906,3.333326494140625,7.114630119628906C3.333326494140625,7.114630119628906,3.333326494140625,13.332860119628906,3.333326494140625,13.332860119628906C3.333536494140625,13.478860119628907,3.372106494140625,13.622260119628907,3.4451764941406253,13.748660119628907C3.518066494140625,13.874760119628906,3.6227064941406253,13.979560119628907,3.748676494140625,14.052560119628906C3.749116494140625,14.052860119628907,3.749546494140625,14.053060119628906,3.749986494140625,14.053360119628906C3.749986494140625,14.053360119628906,9.166656494140625,17.148560119628907,9.166656494140625,17.148560119628907C9.166656494140625,17.148560119628907,9.166656494140625,17.148560119628907,9.166656494140625,17.148560119628907Z" fill-rule="evenodd" fill="#373737" fill-opacity="1"/></g></g></svg>