<?xml version="1.0" encoding="UTF-8" standalone="no"?><!DOCTYPE svg PUBLIC "-//W3C//DTD SVG 1.1//EN" "http://www.w3.org/Graphics/SVG/1.1/DTD/svg11.dtd"><svg width="100%" height="100%" viewBox="0 0 47 47" version="1.1" xmlns="http://www.w3.org/2000/svg" xmlns:xlink="http://www.w3.org/1999/xlink" xml:space="preserve" xmlns:serif="http://www.serif.com/" style="fill-rule:evenodd;clip-rule:evenodd;stroke-linejoin:round;stroke-miterlimit:2;"><path d="M46.145,8.688l0,28.776c0,4.783 -3.883,8.666 -8.666,8.666l-28.776,-0c-4.783,-0 -8.666,-3.883 -8.666,-8.666l0,-28.776c0,-4.783 3.883,-8.666 8.666,-8.666l28.776,-0c4.783,-0 8.666,3.883 8.666,8.666Zm-5,-0c0,-2.023 -1.643,-3.666 -3.666,-3.666l-28.776,-0c-2.023,-0 -3.666,1.643 -3.666,3.666l0,28.776c0,2.023 1.643,3.666 3.666,3.666l28.776,-0c2.023,-0 3.666,-1.643 3.666,-3.666l0,-28.776Z"/></svg>